<svg width="19" height="19" viewBox="0 0 19 19" xmlns="http://www.w3.org/2000/svg" style="enable-background:new 0 0 19 19" xml:space="preserve"><path d="M13.7 9.5c0 .3-.2.5-.5.5H10v3.2c0 .3-.2.5-.5.5s-.5-.2-.5-.5V10H5.8c-.3 0-.5-.2-.5-.5s.2-.5.5-.5H9V5.8c0-.3.2-.5.5-.5s.5.2.5.5V9h3.2c.3 0 .5.2.5.5zm4.3 0c0 2.3-.9 4.4-2.5 6-1.7 1.7-3.8 2.5-6 2.5s-4.4-.8-6-2.5C1.9 13.9 1 11.8 1 9.5s.9-4.4 2.5-6C5.1 1.9 7.2 1 9.5 1s4.4.9 6 2.5c1.6 1.6 2.5 3.7 2.5 6zm-1 0c0-2-.8-3.9-2.2-5.3C13.4 2.8 11.5 2 9.5 2s-3.9.8-5.3 2.2C2.8 5.6 2 7.5 2 9.5s.8 3.9 2.2 5.3c2.9 2.9 7.7 2.9 10.6 0 1.4-1.4 2.2-3.3 2.2-5.3z" style="fill-rule:evenodd;clip-rule:evenodd;fill:#761234;stroke:#761234;stroke-width:.5"/></svg>