<svg width="610" height="118" viewBox="0 0 610 118" fill="none" xmlns="http://www.w3.org/2000/svg">
<path d="M251.89 82.82C251.89 72.03 258.24 63.95 263.84 55.33C268.13 48.73 270.94 41.41 270.56 33.45C269.66 14.82 254.27 -0.00999495 235.42 5.05433e-06C216.02 5.05433e-06 200.37 15.54 200.24 34.94C200.22 38.01 200.59 40.98 201.31 43.82C203.68 38.13 209.29 34.13 215.84 34.13C224.53 34.13 231.57 41.17 231.57 49.86C231.57 50.72 231.42 51.69 231.22 52.64C230.77 54.73 229.98 56.73 228.99 58.63C227.33 61.83 226.08 65.27 225.32 68.9C224.64 72.14 224.34 75.53 224.48 79C225.37 100.4 243.04 117.55 264.45 117.83C268.54 117.88 272.49 117.33 276.22 116.26C262.1 111.71 251.89 98.47 251.89 82.84V82.82ZM277.57 100.56C277.57 105.6 279.17 110.25 281.89 114.07C289.12 110.72 295.18 105.3 299.35 98.57C298.01 96.52 297.16 94.11 297.03 91.49C296.73 85.47 300.21 80.14 305.39 77.8C305.39 77.75 305.39 77.7 305.39 77.65C303.94 77.37 302.44 77.22 300.9 77.22C288.01 77.22 277.57 87.67 277.57 100.56ZM286.95 50.92C286.95 49.02 285.41 47.49 283.51 47.49C281.61 47.49 280.08 49.03 280.08 50.93C280.08 52.83 281.62 54.36 283.52 54.36C285.42 54.36 286.95 52.82 286.95 50.93V50.92ZM301.9 36.26C302.8 33.94 303.29 31.43 303.29 28.8C303.29 25.02 302.25 21.49 300.48 18.44C299.81 23.25 297.88 27.64 295.03 31.28C294.96 31.38 294.91 31.49 294.84 31.59C293.61 30.94 292.28 30.3 290.84 29.65C289.78 29.11 288.83 28.53 287.98 27.94C284.39 25.86 281.69 22.41 280.6 18.3C279.92 20.54 279.56 22.91 279.56 25.37C279.56 33.5 283.53 40.7 289.64 45.14L289.7 45.18C290.96 46.15 292.17 47.16 293.31 48.28C297.82 52.69 301.31 58.15 303.38 64.25C305.5 61.39 306.96 58.02 307.54 54.35C307.73 53.18 307.83 51.98 307.83 50.76C307.83 44.39 306.1 40 301.89 36.26H301.9Z" fill="#F0533D"/>
<path d="M89.28 76.0399L89.18 76.0099C77.68 72.5699 73.61 69.1799 73.61 64.0999C73.61 61.5699 74.83 58.6799 76.97 56.7099C78.86 54.9699 82.38 52.8999 88.43 52.8999C92.5 52.8999 96.45 53.7899 100.16 55.6999C101.33 56.4199 101.91 57.0799 102.08 58.3599L102.65 67.7399H109.14L109.83 47.0399H104L103.35 49.0699C100.23 47.5299 95.19 45.7799 88.43 45.7799C82.98 45.7799 77.56 47.4499 73.56 50.3699C68.87 53.7899 66.39 58.5399 66.39 64.1099C66.39 75.0099 74.37 79.5199 87.24 83.2799C97.32 86.2399 105.67 89.2799 105.67 96.5499C105.67 103.22 98.34 108.86 89.32 108.86C84.38 108.86 79.94 107.62 76.1 105.18C74.61 104.23 73.55 102.66 73.18 100.85L71.82 93.9499H65.41L66.68 114.65H72.78C72.9 113.89 73.05 112.34 73.14 111.77C76.7 113.8 82.29 116.1 89.33 116.1C95.65 116.1 101.55 114.13 105.94 110.55C110.43 106.89 112.9 101.92 112.9 96.5599C112.9 83.3399 101.43 79.7999 89.29 76.0499L89.28 76.0399ZM179.11 108.69C177.84 108.49 177.84 107.89 177.83 107.08V66.5999C177.83 59.2499 176.47 54.4999 173.41 51.1999C169.96 47.4899 164.46 45.7599 156.1 45.7599C145.85 45.7599 138.92 48.8199 134.8 51.5199V51.4699C134.8 50.1499 134.28 48.9199 133.35 47.9899C132.4 47.0499 131.17 46.5599 129.77 46.5599L119.4 47.0499V52.1999L125.86 52.5299C126.14 52.5499 126.27 52.5699 126.28 52.5699C127.55 52.7699 127.55 53.3699 127.55 54.1399V107.12C127.55 107.89 127.55 108.49 126.28 108.69C126.28 108.69 126.14 108.71 125.87 108.73L118.97 109.1V114.63H143.39V109.1L136.47 108.73C136.2 108.71 136.07 108.69 136.07 108.69C134.8 108.49 134.8 107.89 134.8 107.12V63.6799C134.8 61.7699 135.69 59.9999 137.23 58.7999C142.47 54.7699 148.46 52.8899 156.11 52.8899C168.38 52.8899 170.4 56.2499 170.58 67.0299L170.6 107.19C170.6 107.87 170.6 108.5 169.33 108.7C169.33 108.7 169.19 108.72 168.92 108.74L162.02 109.11V114.64H186.44V109.11L179.53 108.75C179.25 108.73 179.12 108.71 179.11 108.71V108.69ZM51.8 108.59C50.53 108.39 50.53 107.77 50.53 107.04V66.4699C50.54 51.5599 44.34 45.7499 28.43 45.7499C19.67 45.7499 13.39 47.4199 9.67 48.8099L7.94 49.4599V56.7999L11.54 55.4699C14.17 54.4999 19.79 52.8599 27.82 52.8599C40.13 52.8599 43.31 55.8099 43.31 67.2199V73.0699L22.54 74.8699C12.05 75.7799 0 78.7799 0 94.0199C0 104.99 7.22 116.07 23.34 116.07C31.77 116.07 39.36 112 43.39 109.36V109.52C43.39 112.26 45.67 115.06 48.48 115.06L59.13 114.63V109.1L52.23 108.64C51.96 108.62 51.82 108.6 51.82 108.6L51.8 108.59ZM40.86 102.35C38.74 103.88 31.22 108.87 23.32 108.87C15.88 108.87 7.2 104.98 7.2 94.0299C7.2 86.3199 11.52 83.0699 23.15 82.0599L43.29 80.3099V97.4499C43.29 99.4099 42.38 101.24 40.86 102.34V102.35ZM460.14 108.59C458.87 108.39 458.87 107.77 458.87 107.04V66.4699C458.88 51.5599 452.68 45.7499 436.77 45.7499C428.01 45.7499 421.73 47.4199 418.01 48.8099L416.28 49.4599V56.7999L419.88 55.4699C422.51 54.4999 428.13 52.8599 436.16 52.8599C448.47 52.8599 451.65 55.8099 451.65 67.2199V73.0699L430.88 74.8699C420.39 75.7799 408.34 78.7799 408.34 94.0199C408.34 104.99 415.56 116.07 431.68 116.07C440.11 116.07 447.7 112 451.73 109.36V109.52C451.73 112.26 454.01 115.06 456.82 115.06L467.47 114.63V109.1L460.57 108.64C460.3 108.62 460.16 108.6 460.16 108.6L460.14 108.59ZM449.21 102.35C447.09 103.88 439.57 108.87 431.67 108.87C424.23 108.87 415.55 104.98 415.55 94.0299C415.55 86.3199 419.87 83.0699 431.5 82.0599L451.64 80.3099V97.4499C451.64 99.4099 450.73 101.24 449.21 102.34V102.35ZM371.85 45.7599C364.39 45.7599 358.5 47.2299 353.87 50.2399V23.3799C353.87 20.6999 351.49 18.4299 348.67 18.4299L338.03 18.9099V24.0999L344.94 24.4499C345.23 24.4699 345.36 24.4899 345.37 24.4999C346.54 24.6899 346.61 25.2799 346.64 25.7499L346.66 114.63H353.06L353.38 111.16C358.09 114.47 364.15 116.07 371.88 116.07C381.19 116.07 388.84 112.86 394 106.78C399.17 100.7 401.79 91.5499 401.79 80.6199C401.79 57.8899 391.44 45.7399 371.88 45.7399L371.85 45.7599ZM371.85 108.95C364.69 108.95 359.43 107.34 355.78 104.02C354.56 102.91 353.87 101.09 353.87 99.2999V62.1499C353.87 60.3199 354.58 58.6399 355.82 57.5499C359.47 54.3399 364.71 52.7799 371.85 52.7799C387.27 52.7799 394.76 61.9899 394.77 80.6399C394.77 104.9 380.41 108.95 371.85 108.95ZM606.22 52.7599C608.8 52.5299 609.74 52.4599 609.74 52.4599V47.0799H581.57V52.4599L591.37 52.9899C591.46 52.9899 591.5 53.0999 591.43 53.1599L570.96 72.5599C570.15 73.3199 569.09 73.7399 567.98 73.7399H561.38V23.3799C561.38 20.6999 559.01 18.4299 556.18 18.4299L545.54 18.9099V24.0999L552.45 24.4499C552.74 24.4699 552.87 24.4899 552.88 24.4999C554.05 24.6899 554.13 25.2799 554.15 25.7499V107.13C554.15 107.89 554.15 108.49 552.88 108.69C552.88 108.69 552.74 108.71 552.47 108.73L545.57 109.1V114.63H569.99V109.1L563.07 108.73C562.8 108.71 562.67 108.69 562.67 108.69C561.4 108.49 561.39 107.89 561.39 107.12V80.8399H567.55C568.62 80.8399 569.63 81.3099 570.32 82.1199C575.02 87.6599 589.62 105.06 589.62 105.06C598.05 114.83 600.86 117.99 609.75 115.04V109.41C609.2 109.41 609.18 109.41 608.9 109.41C603.71 109.41 603.24 110.13 596.91 102.74C596.44 102.2 577.74 80.0299 575.7 77.6399L599.06 55.4999C601.25 53.3999 601.07 53.2099 606.23 52.7499L606.22 52.7599ZM532.92 108.69C531.65 108.49 531.65 107.89 531.64 107.08V66.5999C531.64 59.2499 530.28 54.4999 527.22 51.1999C523.77 47.4899 518.27 45.7599 509.91 45.7599C499.66 45.7599 492.73 48.8199 488.61 51.5199V51.4699C488.61 50.1499 488.09 48.9199 487.16 47.9899C486.21 47.0499 484.98 46.5599 483.58 46.5599L473.21 47.0499V52.1999L479.67 52.5299C479.95 52.5499 480.08 52.5699 480.09 52.5699C481.36 52.7699 481.36 53.3699 481.36 54.1399V107.12C481.36 107.89 481.36 108.49 480.09 108.69C480.09 108.69 479.95 108.71 479.68 108.73L472.78 109.1V114.63H497.2V109.1L490.28 108.73C490.01 108.71 489.88 108.69 489.88 108.69C488.61 108.49 488.61 107.89 488.61 107.12V63.6799C488.61 61.7699 489.5 59.9999 491.04 58.7999C496.28 54.7699 502.27 52.8899 509.92 52.8899C522.19 52.8899 524.21 56.2499 524.39 67.0299L524.41 107.19C524.41 107.87 524.41 108.5 523.14 108.7C523.14 108.7 523 108.72 522.73 108.74L515.83 109.11V114.64H540.25V109.11L533.34 108.75C533.06 108.73 532.93 108.71 532.92 108.71V108.69Z" fill="#575756"/>
</svg>
